<?xml version="1.0" encoding="UTF-8"?>
<svg version="1.1" xmlns="http://www.w3.org/2000/svg" width="365" height="365">
<path d="M0 0 C0.84551422 0.00304138 1.69102844 0.00608276 2.56216431 0.00921631 C16.28076358 0.08186213 29.41144332 1.01567644 42.75 4.4375 C44.00852783 4.75098389 44.00852783 4.75098389 45.29248047 5.07080078 C69.65925079 11.30611579 91.72669383 22.3188616 111.75 37.4375 C113.09964844 38.44683594 113.09964844 38.44683594 114.4765625 39.4765625 C145.05992247 63.4073487 165.97455499 96.65596956 176.9375 133.6875 C177.17549316 134.4714917 177.41348633 135.2554834 177.65869141 136.06323242 C182.00432351 151.35821296 183.30952766 166.85509768 183.1875 182.6875 C183.18293793 183.95577133 183.18293793 183.95577133 183.17828369 185.24966431 C183.10563787 198.96826358 182.17182356 212.09894332 178.75 225.4375 C178.43651611 226.69602783 178.43651611 226.69602783 178.11669922 227.97998047 C171.88138421 252.34675079 160.8686384 274.41419383 145.75 294.4375 C145.07710938 295.33726562 144.40421875 296.23703125 143.7109375 297.1640625 C119.7801513 327.74742247 86.53153044 348.66205499 49.5 359.625 C48.7160083 359.86299316 47.9320166 360.10098633 47.12426758 360.34619141 C31.82928704 364.69182351 16.33240232 365.99702766 0.5 365.875 C-0.34551422 365.87195862 -1.19102844 365.86891724 -2.06216431 365.86578369 C-15.78076358 365.79313787 -28.91144332 364.85932356 -42.25 361.4375 C-43.50852783 361.12401611 -43.50852783 361.12401611 -44.79248047 360.80419922 C-69.15925079 354.56888421 -91.22669383 343.5561384 -111.25 328.4375 C-112.14976563 327.76460938 -113.04953125 327.09171875 -113.9765625 326.3984375 C-144.55992247 302.4676513 -165.47455499 269.21903044 -176.4375 232.1875 C-176.67549316 231.4035083 -176.91348633 230.6195166 -177.15869141 229.81176758 C-181.50432351 214.51678704 -182.80952766 199.01990232 -182.6875 183.1875 C-182.68445862 182.34198578 -182.68141724 181.49647156 -182.67828369 180.62533569 C-182.60563787 166.90673642 -181.67182356 153.77605668 -178.25 140.4375 C-177.93651611 139.17897217 -177.93651611 139.17897217 -177.61669922 137.89501953 C-171.38138421 113.52824921 -160.3686384 91.46080617 -145.25 71.4375 C-144.24066406 70.08785156 -144.24066406 70.08785156 -143.2109375 68.7109375 C-119.2801513 38.12757753 -86.03153044 17.21294501 -49 6.25 C-48.2160083 6.01200684 -47.4320166 5.77401367 -46.62426758 5.52880859 C-31.32928704 1.18317649 -15.83240232 -0.12202766 0 0 Z " fill="#FEFEFE" transform="translate(182.25,-0.4375)"/>
<path d="M0 0 C0.73541016 0.00202423 1.47082031 0.00404846 2.22851562 0.00613403 C2.97939453 0.00517731 3.73027344 0.00422058 4.50390625 0.00323486 C6.09440189 0.00255315 7.6849003 0.00440682 9.27539062 0.00857544 C11.71816217 0.01392386 14.16074984 0.00863019 16.60351562 0.00222778 C18.1451827 0.00288857 19.68684966 0.00416973 21.22851562 0.00613403 C21.96392578 0.0041098 22.69933594 0.00208557 23.45703125 0 C28.61356402 0.02399493 28.61356402 0.02399493 29.72851562 1.13894653 C29.82390752 2.51770679 29.85040185 3.90131569 29.84877014 5.28337097 C29.85083214 6.62328346 29.85083214 6.62328346 29.85293579 7.99026489 C29.84754288 9.4716394 29.84754288 9.4716394 29.84204102 10.98294067 C29.84218704 12.01696518 29.84233307 13.05098969 29.84248352 14.11634827 C29.8417839 17.55228739 29.8339892 20.98817307 29.82617188 24.42410278 C29.82430787 26.79921947 29.82288389 29.17433653 29.82188416 31.54945374 C29.81805759 37.81470798 29.80822613 44.07993921 29.79718018 50.34518433 C29.78696902 56.73281544 29.78238717 63.12045025 29.77734375 69.50808716 C29.76660398 82.05171871 29.74900607 94.59532711 29.72851562 107.13894653 C21.14851563 107.13894653 12.56851563 107.13894653 3.72851562 107.13894653 C3.72851562 102.84894653 3.72851562 98.55894653 3.72851562 94.13894653 C-8.64648438 94.63394653 -8.64648438 94.63394653 -21.27148438 95.13894653 C-23.74648437 101.07894653 -23.74648437 101.07894653 -26.27148438 107.13894653 C-35.18148437 107.13894653 -44.09148437 107.13894653 -53.27148438 107.13894653 C-52.39902553 102.77665229 -51.14400708 99.21737528 -49.34179688 95.21707153 C-49.03979874 94.53664795 -48.7378006 93.85622437 -48.426651 93.15518188 C-47.42213836 90.89725166 -46.40963393 88.6430132 -45.39648438 86.38894653 C-44.68325722 84.79295917 -43.97012436 83.19692967 -43.25708008 81.6008606 C-35.83722688 65.03403743 -28.18066688 48.5766005 -20.51547241 32.12228394 C-16.73187186 23.99364865 -13.00205285 15.84080907 -9.3034668 7.67312622 C-8.90877197 6.80590942 -8.51407715 5.93869263 -8.10742188 5.04519653 C-7.6054126 3.93628052 -7.6054126 3.93628052 -7.09326172 2.80496216 C-5.41933558 -0.58864211 -3.58847052 0.01669825 0 0 Z " fill="#02E447" transform="translate(219.271484375,127.86105346679688)"/>
<path d="M0 0 C0.7734375 -0.020625 1.546875 -0.04125 2.34375 -0.0625 C8.89827578 -0.10649011 14.27262653 1.09967471 19.640625 4.9765625 C29.37165808 14.91202904 30.25 23.17992404 30.25 37.25 C21.67 37.25 13.09 37.25 4.25 37.25 C3.26 32.3 3.26 32.3 2.25 27.25 C0.26766487 24.84466929 0.26766487 24.84466929 -3.5625 24.875 C-6.40517376 24.98256063 -7.77406081 25.2620304 -10.375 26.5625 C-22.85629578 40.68607154 -24.5111605 57.87593515 -24.05639648 75.80908203 C-23.70523914 78.60658889 -23.01756087 80.73188894 -21.75 83.25 C-18.22089647 85.60273568 -16.90685632 85.65753493 -12.75 85.25 C-7.20374123 83.32578777 -4.60155896 80.16759413 -1.75 75.25 C-0.45925629 72.49038963 -0.45925629 72.49038963 0.25 70.25 C-2.39 70.25 -5.03 70.25 -7.75 70.25 C-9.1083275 65.87701088 -8.0312702 62.36979793 -6.875 58.0625 C-6.68808594 57.32580078 -6.50117187 56.58910156 -6.30859375 55.83007812 C-4.89982531 50.39982531 -4.89982531 50.39982531 -3.75 49.25 C-0.72022196 49.16128727 2.28667022 49.1348065 5.31640625 49.15234375 C6.22502914 49.1537587 7.13365204 49.15517365 8.06980896 49.15663147 C10.98407221 49.16224807 13.89825981 49.17480335 16.8125 49.1875 C18.78320202 49.19251286 20.75390524 49.19707614 22.72460938 49.20117188 C27.56643559 49.21222289 32.40820495 49.22949862 37.25 49.25 C37.10054274 50.68252666 36.94831121 52.11476404 36.79492188 53.546875 C36.66821106 54.74328613 36.66821106 54.74328613 36.53894043 55.96386719 C36.17960142 58.80700238 35.53267926 61.49496902 34.75 64.25 C34.4921875 65.178125 34.234375 66.10625 33.96875 67.0625 C33.25 69.25 33.25 69.25 32.25 70.25 C29.91702567 70.29092937 27.58294775 70.29241723 25.25 70.25 C25.12625 71.12398438 25.0025 71.99796875 24.875 72.8984375 C22.66228538 84.76411963 15.72082094 95.99125426 6.5 103.75 C-3.31932378 110.2833296 -15.27662931 111.72035124 -26.75 110.25 C-37.34946096 107.24418271 -42.57227969 100.50378149 -47.890625 91.26953125 C-54.92127576 74.74750197 -51.14338211 52.01379729 -44.82470703 35.88867188 C-41.44804824 28.11948794 -37.39397695 20.61257349 -31.75 14.25 C-31.25371094 13.65058594 -30.75742187 13.05117187 -30.24609375 12.43359375 C-22.20167081 3.45873153 -11.65026761 0.07614554 0 0 Z " fill="#03E347" transform="translate(80.75,126.75)"/>
<path d="M0 0 C3.9374352 -0.05893685 7.87475427 -0.09390669 11.8125 -0.125 C12.91271484 -0.14175781 14.01292969 -0.15851563 15.14648438 -0.17578125 C28.72859074 -0.25591167 39.85769213 1.56529501 50 11 C55.73686437 17.65476267 56.5472632 27.37693292 56.28125 35.8671875 C54.89611436 51.2960595 49.64266211 64.5890648 37.859375 74.8671875 C23.8070186 85.70890618 8.92589822 85.71691867 -8 85 C-5.74087456 87.34915285 -3.76634683 88.78321216 -0.8125 90.1875 C-0.09707031 90.53167969 0.61835938 90.87585938 1.35546875 91.23046875 C1.89816406 91.48441406 2.44085938 91.73835938 3 92 C2.88382356 93.37577361 2.75654223 94.75061045 2.625 96.125 C2.55539062 96.89070313 2.48578125 97.65640625 2.4140625 98.4453125 C2 101 2 101 0 107 C-8.25 107 -16.5 107 -25 107 C-23.87663318 96.88969864 -23.87663318 96.88969864 -22.6171875 91.90234375 C-22.34068359 90.78802979 -22.06417969 89.67371582 -21.77929688 88.52563477 C-21.48087891 87.34155029 -21.18246094 86.15746582 -20.875 84.9375 C-20.2340803 82.34180839 -19.59514997 79.74576315 -18.9609375 77.1484375 C-18.7161264 76.14632988 -18.7161264 76.14632988 -18.46636963 75.12397766 C-16.68867447 67.79666036 -15.08955439 60.43247761 -13.5 53.0625 C-11.2851772 42.8333057 -9.04850903 32.60989773 -6.70239258 22.40988159 C-6.26260532 20.4924578 -5.8294461 18.57351756 -5.39648438 16.65454102 C-4.04427576 10.8160818 -2.63019933 5.39507755 0 0 Z " fill="#04E347" transform="translate(277,128)"/>
<path d="M0 0 C5.98706782 4.7584513 8.96694489 9.9261924 10.4609375 17.40625 C10.77672012 21.10740803 10.87685852 24.71068945 10.4609375 28.40625 C9.4609375 29.40625 9.4609375 29.40625 7.23608398 29.51977539 C6.27774658 29.51453857 5.31940918 29.50930176 4.33203125 29.50390625 C3.29755859 29.50068359 2.26308594 29.49746094 1.19726562 29.49414062 C0.10865234 29.48576172 -0.97996094 29.47738281 -2.1015625 29.46875 C-3.7402832 29.46198242 -3.7402832 29.46198242 -5.41210938 29.45507812 C-8.12114745 29.44324826 -10.83007849 29.42676543 -13.5390625 29.40625 C-13.74402344 28.76816406 -13.94898438 28.13007813 -14.16015625 27.47265625 C-14.42957031 26.64636719 -14.69898438 25.82007813 -14.9765625 24.96875 C-15.24339844 24.14503906 -15.51023438 23.32132813 -15.78515625 22.47265625 C-16.36061744 20.44405412 -16.36061744 20.44405412 -17.5390625 19.40625 C-21.56989261 19.08164739 -21.56989261 19.08164739 -25.5390625 19.40625 C-28.00017083 23.0979125 -27.86276 24.69396301 -27.2578125 28.94921875 C-25.26932459 35.74682143 -19.41603663 40.56842758 -14.4765625 45.34375 C-7.14828945 52.50445583 -2.49856711 59.59187813 -2.29711914 69.93920898 C-2.25625281 80.55083359 -3.34946346 88.91545286 -10.37109375 97.359375 C-19.21858468 105.71268176 -28.83107215 106.79753843 -40.39453125 106.6171875 C-48.3259751 106.33159206 -54.97930733 103.10856299 -60.5390625 97.40625 C-64.58283655 91.16042077 -66.68907439 85.10979239 -66.6640625 77.65625 C-66.66664062 76.87765625 -66.66921875 76.0990625 -66.671875 75.296875 C-66.5390625 73.40625 -66.5390625 73.40625 -65.5390625 72.40625 C-63.77047057 72.30678547 -61.99794799 72.27544783 -60.2265625 72.2734375 C-59.15148437 72.27214844 -58.07640625 72.27085937 -56.96875 72.26953125 C-55.83695313 72.27339844 -54.70515625 72.27726562 -53.5390625 72.28125 C-52.40726563 72.27738281 -51.27546875 72.27351563 -50.109375 72.26953125 C-49.03429687 72.27082031 -47.95921875 72.27210938 -46.8515625 72.2734375 C-45.36076172 72.27512939 -45.36076172 72.27512939 -43.83984375 72.27685547 C-41.5390625 72.40625 -41.5390625 72.40625 -40.5390625 73.40625 C-40.14757489 74.91790654 -39.79933793 76.44094632 -39.4765625 77.96875 C-39.29996094 78.79503906 -39.12335938 79.62132812 -38.94140625 80.47265625 C-38.80863281 81.11074219 -38.67585938 81.74882812 -38.5390625 82.40625 C-35.66248502 83.28520423 -34.07528808 83.60914616 -31.2265625 82.53125 C-28.90479135 79.60753818 -28.84640849 77.45841025 -29.046875 73.78515625 C-30.59004916 66.32648116 -38.15656527 60.57989749 -43.20166016 55.19995117 C-52.17049592 45.53567092 -55.25161731 36.84050691 -54.91796875 23.6171875 C-54.57318706 18.05866402 -52.75374266 13.92211022 -49.5390625 9.40625 C-49.09304687 8.75269531 -48.64703125 8.09914062 -48.1875 7.42578125 C-37.57243603 -6.48054557 -14.50036954 -9.10177042 0 0 Z " fill="#04E347" transform="translate(173.5390625,130.59375)"/>
<path d="M0 0 C2 2 2 2 3.25 5.125 C6.60281085 13.10632533 12.86946487 19.17600094 18.77319336 25.34423828 C26.41445427 33.41390081 26.41445427 33.41390081 26.5 39.5625 C26.37663768 43.08126344 26.16937717 43.79674739 23.8125 46.625 C21 48 21 48 18.3125 47.9375 C16 47 16 47 14 44 C13.505 40.535 13.505 40.535 13 37 C5.08 37 -2.84 37 -11 37 C-11.08564609 43.88493841 -11.08564609 43.88493841 -10.5 50.5625 C-10.2525 52.2640625 -10.2525 52.2640625 -10 54 C-10.66 54 -11.32 54 -12 54 C-13.485 49.545 -13.485 49.545 -15 45 C-15.66 45 -16.32 45 -17 45 C-17.33 46.65 -17.66 48.3 -18 50 C-19.485 50.495 -19.485 50.495 -21 51 C-20.73445313 50.34644531 -20.46890625 49.69289062 -20.1953125 49.01953125 C-18.70697928 45.25978753 -17.2899438 41.47535194 -15.875 37.6875 C-15.59785156 36.94693359 -15.32070312 36.20636719 -15.03515625 35.44335938 C-14.35626973 33.62909368 -13.67806589 31.81457256 -13 30 C-10.69 29.67 -8.38 29.34 -6 29 C-4.35 22.4 -2.7 15.8 -1 9 C-6.80316805 9.07387703 -12.60475874 9.15659142 -18.40722656 9.26245117 C-20.38207906 9.29575528 -22.357028 9.32376997 -24.33203125 9.34643555 C-27.16708577 9.37988122 -30.001252 9.43219046 -32.8359375 9.48828125 C-33.72243988 9.49467117 -34.60894226 9.5010611 -35.52230835 9.50764465 C-36.753358 9.53733589 -36.753358 9.53733589 -38.00927734 9.56762695 C-38.73319672 9.57873001 -39.45711609 9.58983307 -40.20297241 9.60127258 C-42.41648203 9.87490507 -42.41648203 9.87490507 -44 13 C-43.67 11.02 -43.34 9.04 -43 7 C-37.03686834 6.97535426 -31.07376605 6.957166 -25.1105957 6.94506836 C-23.08031702 6.94002722 -21.05004198 6.93319443 -19.01977539 6.92456055 C-16.10822653 6.91248533 -13.1967255 6.90676966 -10.28515625 6.90234375 C-9.3716188 6.89718246 -8.45808136 6.89202118 -7.51686096 6.88670349 C-5.34424573 6.88650832 -3.17172704 6.93788195 -1 7 C-0.505 7.495 -0.505 7.495 0 8 C0 5.36 0 2.72 0 0 Z " fill="#F6FEF9" transform="translate(119,167)"/>
<path d="M0 0 C3.08301416 -0.11644156 6.16546123 -0.18732432 9.25 -0.25 C10.12269531 -0.28351563 10.99539063 -0.31703125 11.89453125 -0.3515625 C18.39276152 -0.45077212 18.39276152 -0.45077212 21.546875 1.890625 C25.48181113 7.60262906 24.39763737 14.5118043 23.3125 21.125 C21.92346875 27.34629488 19.04090658 31.90538536 14.625 36.4375 C11.41292277 38.34945073 8.69785329 38.70997229 5 39 C5.66742961 31.94632283 6.97568869 25.27775368 8.62695312 18.3984375 C9.53025807 14.52051297 10.2489222 11.01487424 10 7 C9.04287109 6.49339844 9.04287109 6.49339844 8.06640625 5.9765625 C7.24011719 5.53054687 6.41382813 5.08453125 5.5625 4.625 C4.73878906 4.18414062 3.91507812 3.74328125 3.06640625 3.2890625 C1 2 1 2 0 0 Z " fill="#F5FEF9" transform="translate(283,151)"/>
<path d="M0 0 C4.82380802 -0.0246519 9.64757967 -0.04283693 14.47143555 -0.05493164 C16.11369464 -0.05997174 17.75594923 -0.06680378 19.39819336 -0.07543945 C21.75375479 -0.08751926 24.10925709 -0.09323139 26.46484375 -0.09765625 C27.20339096 -0.10281754 27.94193817 -0.10797882 28.7028656 -0.11329651 C30.46898088 -0.1134925 32.23497146 -0.06194719 34 0 C35 1 35 1 35.12304783 2.77848911 C35.12166514 3.9496271 35.12166514 3.9496271 35.12025452 5.14442444 C35.12162918 6.03769943 35.12300385 6.93097443 35.12442017 7.85131836 C35.11902725 9.33269287 35.11902725 9.33269287 35.11352539 10.84399414 C35.11367142 11.87801865 35.11381744 12.91204315 35.1139679 13.97740173 C35.11326827 17.41334086 35.10547358 20.84922653 35.09765625 24.28515625 C35.09579225 26.66027293 35.09436826 29.03539 35.09336853 31.4105072 C35.08954197 37.67576144 35.0797105 43.94099267 35.06866455 50.20623779 C35.0584534 56.5938689 35.05387155 62.98150371 35.04882812 69.36914062 C35.03808836 81.91277218 35.02049044 94.45638058 35 107 C26.42 107 17.84 107 9 107 C9 102.71 9 98.42 9 94 C0.42 94.33 -8.16 94.66 -17 95 C-17 94.01 -17 93.02 -17 92 C-8.42 91.67 0.16 91.34 9 91 C9.33 91.99 9.66 92.98 10 94 C10.66 94.33 11.32 94.66 12 95 C12.0270043 96.45823212 12.04639787 97.91660675 12.0625 99.375 C12.07410156 100.18710938 12.08570313 100.99921875 12.09765625 101.8359375 C12 104 12 104 11 106 C18.26 106 25.52 106 33 106 C33 71.68 33 37.36 33 2 C21.78 2.33 10.56 2.66 -1 3 C-0.67 2.01 -0.34 1.02 0 0 Z " fill="#22D25C" transform="translate(214,128)"/>
<path d="M0 0 C0.33 0 0.66 0 1 0 C1.10666054 13.71818679 1.06262441 27.31871068 0 41 C-5.28 41 -10.56 41 -16 41 C-15.21732387 37.08661934 -14.39018209 34.24270492 -12.85546875 30.6484375 C-12.42556641 29.63136719 -11.99566406 28.61429688 -11.55273438 27.56640625 C-10.87694336 25.98666016 -10.87694336 25.98666016 -10.1875 24.375 C-7.18659958 17.33323955 -4.31000161 10.29900538 -1.7902832 3.06884766 C-1 1 -1 1 0 0 Z " fill="#F9FEFA" transform="translate(224,158)"/>
<path d="M0 0 C0.33 0 0.66 0 1 0 C1 32.67 1 65.34 1 99 C2.485 98.505 2.485 98.505 4 98 C3.67 100.64 3.34 103.28 3 106 C11.25 106 19.5 106 28 106 C28.33 105.34 28.66 104.68 29 104 C29 104.99 29 105.98 29 107 C26.5661043 108.21694785 25.00513758 108.12926591 22.28515625 108.1328125 C21.30087646 108.13474609 20.31659668 108.13667969 19.30249023 108.13867188 C18.23329346 108.13416016 17.16409668 108.12964844 16.0625 108.125 C14.41906616 108.12209961 14.41906616 108.12209961 12.74243164 108.11914062 C0.15177809 108.05505246 -12.42278893 107.55459498 -25 107 C-25 106.67 -25 106.34 -25 106 C-16.75 106 -8.5 106 0 106 C0 71.02 0 36.04 0 0 Z " fill="#A7FFCE" transform="translate(249,129)"/>
<path d="M0 0 C11.22 0 22.44 0 34 0 C34 34.98 34 69.96 34 106 C33.67 106 33.34 106 33 106 C33 71.68 33 37.36 33 2 C21.78 2.33 10.56 2.66 -1 3 C-0.67 2.01 -0.34 1.02 0 0 Z " fill="#0CDA4D" transform="translate(214,128)"/>
<path d="M0 0 C1.72974441 0.00015918 3.45949355 0.0058569 5.18920898 0.01586914 C6.09783188 0.01728409 7.00645477 0.01869904 7.94261169 0.02015686 C10.85687494 0.02577346 13.77106254 0.03832874 16.68530273 0.05102539 C18.65600475 0.05603825 20.62670797 0.06060153 22.59741211 0.06469727 C27.43923832 0.07574828 32.28100768 0.09302401 37.12280273 0.11352539 C37.00770612 1.53103102 36.88026616 2.94753708 36.74780273 4.36352539 C36.67819336 5.15243164 36.60858398 5.94133789 36.53686523 6.75415039 C36.10773161 9.19940239 35.33679636 10.96189442 34.12280273 13.11352539 C33.92788822 11.65616453 33.74210916 10.19757946 33.56030273 8.73852539 C33.40368164 7.52036133 33.40368164 7.52036133 33.24389648 6.27758789 C33.12280273 4.11352539 33.12280273 4.11352539 34.12280273 2.11352539 C21.58280273 2.11352539 9.04280273 2.11352539 -3.87719727 2.11352539 C-5.62632521 10.76979657 -5.62632521 10.76979657 -5.87719727 19.11352539 C-3.56719727 19.44352539 -1.25719727 19.77352539 1.12280273 20.11352539 C0.79280273 21.76352539 0.46280273 23.41352539 0.12280273 25.11352539 C-0.20719727 24.45352539 -0.53719727 23.79352539 -0.87719727 23.11352539 C-0.54719727 22.45352539 -0.21719727 21.79352539 0.12280273 21.11352539 C-2.51719727 21.11352539 -5.15719727 21.11352539 -7.87719727 21.11352539 C-9.23552477 16.74053627 -8.15846747 13.23332332 -7.00219727 8.92602539 C-6.72182617 7.82097656 -6.72182617 7.82097656 -6.43579102 6.69360352 C-4.73524168 0.13864916 -4.73524168 0.13864916 0 0 Z " fill="#19D754" transform="translate(80.877197265625,175.886474609375)"/>
<path d="M0 0 C0.66 0 1.32 0 2 0 C2 3.96 2 7.92 2 12 C3.32 12 4.64 12 6 12 C6.33 10.35 6.66 8.7 7 7 C7.66 7.33 8.32 7.66 9 8 C4.71 17.57 0.42 27.14 -4 37 C-4.66 36.01 -5.32 35.02 -6 34 C-5.505 33.505 -5.505 33.505 -5 33 C-5.66 32.67 -6.32 32.34 -7 32 C-7 32.66 -7 33.32 -7 34 C-7.66 33.67 -8.32 33.34 -9 33 C-8.59007812 32.443125 -8.18015625 31.88625 -7.7578125 31.3125 C-0.6951808 21.30992113 -0.54535023 11.82548924 0 0 Z " fill="#D5FEE7" transform="translate(171,195)"/>
<path d="M0 0 C0 0.33 0 0.66 0 1 C-1.39025391 1.19916016 -1.39025391 1.19916016 -2.80859375 1.40234375 C-4.00613281 1.57894531 -5.20367187 1.75554687 -6.4375 1.9375 C-7.63246094 2.11152344 -8.82742187 2.28554687 -10.05859375 2.46484375 C-12.87955676 2.68985213 -12.87955676 2.68985213 -14 4 C-15.258125 4.103125 -16.51625 4.20625 -17.8125 4.3125 C-21.87033624 4.76657404 -23.27490256 5.91155624 -26 9 C-27.010625 9.45375 -28.02125 9.9075 -29.0625 10.375 C-32.66580184 12.36831591 -33.49710298 14.24275746 -35 18 C-35.66 18 -36.32 18 -37 18 C-36.979375 18.969375 -36.95875 19.93875 -36.9375 20.9375 C-37 24 -37 24 -38 25 C-38.10091059 27.73942574 -38.13866203 30.44826228 -38.125 33.1875 C-38.12886719 33.94353516 -38.13273437 34.69957031 -38.13671875 35.47851562 C-38.1292868 39.76303508 -37.84787715 43.78080181 -37 48 C-39 47 -39 47 -40.09765625 44.453125 C-42.22822709 36.29977165 -42.57434514 26.10675029 -38.875 18.375 C-37.4765625 16.07421875 -37.4765625 16.07421875 -36 14 C-35.33097656 13.01966797 -35.33097656 13.01966797 -34.6484375 12.01953125 C-25.99238265 0.67961582 -13.28329332 -0.33162175 0 0 Z " fill="#29DA62" transform="translate(160,126)"/>
<path d="M0 0 C0.33 0 0.66 0 1 0 C1.10666054 13.71818679 1.06262441 27.31871068 0 41 C-5.28 41 -10.56 41 -16 41 C-15.23239022 37.16195111 -14.40495674 34.23779856 -12.9375 30.6875 C-12.57527344 29.80449219 -12.21304688 28.92148438 -11.83984375 28.01171875 C-11.56269531 27.34785156 -11.28554687 26.68398437 -11 26 C-9.35667211 31.40783078 -11.54324151 35.08648302 -14 40 C-9.71 40 -5.42 40 -1 40 C-1 30.43 -1 20.86 -1 11 C-1.66 11 -2.32 11 -3 11 C-3.1546875 12.1446875 -3.1546875 12.1446875 -3.3125 13.3125 C-4.05790616 16.22636046 -4.84458939 17.02950397 -7 19 C-5.34464282 12.17792193 -3.37399268 6.16626248 0 0 Z " fill="#CBFEE2" transform="translate(224,158)"/>
<path d="M0 0 C0.33 0 0.66 0 1 0 C1 3.3 1 6.6 1 10 C0.34 10 -0.32 10 -1 10 C-1.33 10.99 -1.66 11.98 -2 13 C-4.31 13.33 -6.62 13.66 -9 14 C-9 14.99 -9 15.98 -9 17 C-0.75 17 7.5 17 16 17 C16 17.33 16 17.66 16 18 C8.08 18.33 0.16 18.66 -8 19 C-8.08564609 25.88493841 -8.08564609 25.88493841 -7.5 32.5625 C-7.335 33.696875 -7.17 34.83125 -7 36 C-7.66 36 -8.32 36 -9 36 C-9.99 33.03 -10.98 30.06 -12 27 C-12.66 27 -13.32 27 -14 27 C-14.33 28.65 -14.66 30.3 -15 32 C-16.485 32.495 -16.485 32.495 -18 33 C-17.73445313 32.34644531 -17.46890625 31.69289062 -17.1953125 31.01953125 C-15.70697928 27.25978753 -14.2899438 23.47535194 -12.875 19.6875 C-12.59785156 18.94693359 -12.32070312 18.20636719 -12.03515625 17.44335938 C-11.35626973 15.62909368 -10.67806589 13.81457256 -10 12 C-6.535 11.505 -6.535 11.505 -3 11 C-2.01 7.37 -1.02 3.74 0 0 Z " fill="#CDFEE1" transform="translate(116,185)"/>
<path d="M0 0 C2.22825644 2.22825644 2.69239369 3.65761628 3.625 6.625 C4.01558594 7.85089844 4.01558594 7.85089844 4.4140625 9.1015625 C4.60742188 9.72804687 4.80078125 10.35453125 5 11 C4.36578125 11.10183594 3.7315625 11.20367187 3.078125 11.30859375 C2.39234375 11.53675781 1.7065625 11.76492187 1 12 C-0.3045656 14.99615946 -0.3045656 14.99615946 -1 18 C-2.11667279 14.64998162 -1.76286236 12.40745188 -1 9 C-6.80283906 9.06871084 -12.60494601 9.15659484 -18.40722656 9.26245117 C-20.38207906 9.29575528 -22.357028 9.32376997 -24.33203125 9.34643555 C-27.16708577 9.37988122 -30.001252 9.43219046 -32.8359375 9.48828125 C-33.72243988 9.49467117 -34.60894226 9.5010611 -35.52230835 9.50764465 C-36.753358 9.53733589 -36.753358 9.53733589 -38.00927734 9.56762695 C-38.73319672 9.57873001 -39.45711609 9.58983307 -40.20297241 9.60127258 C-42.41648203 9.87490507 -42.41648203 9.87490507 -44 13 C-43.67 11.02 -43.34 9.04 -43 7 C-37.03686834 6.97535426 -31.07376605 6.957166 -25.1105957 6.94506836 C-23.08031702 6.94002722 -21.05004198 6.93319443 -19.01977539 6.92456055 C-16.10822653 6.91248533 -13.1967255 6.90676966 -10.28515625 6.90234375 C-9.3716188 6.89718246 -8.45808136 6.89202118 -7.51686096 6.88670349 C-5.34424573 6.88650832 -3.17172704 6.93788195 -1 7 C-0.505 7.495 -0.505 7.495 0 8 C0 5.36 0 2.72 0 0 Z " fill="#C2FEDB" transform="translate(119,167)"/>
<path d="M0 0 C8.25 0 16.5 0 25 0 C25.33 4.29 25.66 8.58 26 13 C39.365 13.495 39.365 13.495 53 14 C53 14.66 53 15.32 53 16 C48.56262288 16.08690253 44.12546366 16.14035926 39.6875 16.1875 C37.79354492 16.22520508 37.79354492 16.22520508 35.86132812 16.26367188 C34.04858398 16.27817383 34.04858398 16.27817383 32.19921875 16.29296875 C30.52605591 16.31653442 30.52605591 16.31653442 28.8190918 16.34057617 C26 16 26 16 23 13 C23 9.37 23 5.74 23 2 C15.08 2.33 7.16 2.66 -1 3 C-0.67 2.01 -0.34 1.02 0 0 Z " fill="#D8FEE8" transform="translate(198,222)"/>
<path d="M0 0 C0.33 0 0.66 0 1 0 C1 1.65 1 3.3 1 5 C0.34 5 -0.32 5 -1 5 C-1.0825 5.82371094 -1.165 6.64742187 -1.25 7.49609375 C-2.17206436 11.80386319 -3.93728953 15.20032708 -6 19.0625 C-6.7348875 20.44619552 -7.46422332 21.83285635 -8.1875 23.22265625 C-8.51105469 23.82859619 -8.83460938 24.43453613 -9.16796875 25.05883789 C-10.26577094 27.43594953 -10.26577094 27.43594953 -11 32 C-3.41 32.33 4.18 32.66 12 33 C12.33 30.69 12.66 28.38 13 26 C13.66 25.01 14.32 24.02 15 23 C15.66 23.33 16.32 23.66 17 24 C15.68 27.3 14.36 30.6 13 34 C4.09 34 -4.82 34 -14 34 C-13.10498044 29.52490222 -11.92619209 26.28393792 -10.05859375 22.16796875 C-9.77146011 21.53135818 -9.48432648 20.89474762 -9.18849182 20.23884583 C-8.27635209 18.21949002 -7.35705292 16.20348922 -6.4375 14.1875 C-5.8152785 12.8133668 -5.1935286 11.43901995 -4.57226562 10.06445312 C-3.05362805 6.7071451 -1.52855513 3.35280629 0 0 Z " fill="#26D65E" transform="translate(180,201)"/>
<path d="M0 0 C0 0.66 0 1.32 0 2 C-5.3177215 3.24200752 -10.58201328 4.30834212 -16 5 C-15.67 5.66 -15.34 6.32 -15 7 C-14.83203125 8.875 -14.83203125 8.875 -14.8125 11 C-14.79832031 11.70125 -14.78414063 12.4025 -14.76953125 13.125 C-15 15 -15 15 -17 17 C-16.67 14.03 -16.34 11.06 -16 8 C-16.886875 7.731875 -17.77375 7.46375 -18.6875 7.1875 C-21.7909666 6.0749365 -24.31110685 4.89804222 -27 3 C-27 2.34 -27 1.68 -27 1 C-23.25006257 0.83190552 -19.50004074 0.66577241 -15.75 0.5 C-14.15478516 0.42845703 -14.15478516 0.42845703 -12.52734375 0.35546875 C-11.50253906 0.31035156 -10.47773438 0.26523438 -9.421875 0.21875 C-8.47924805 0.17685547 -7.53662109 0.13496094 -6.56542969 0.09179688 C-4.37813904 0.01353067 -2.18869047 0 0 0 Z " fill="#C8FBD9" transform="translate(296,212)"/>
<path d="M0 0 C1 3 1 3 0 8 C8.25 8 16.5 8 25 8 C25.33 7.34 25.66 6.68 26 6 C26 6.99 26 7.98 26 9 C23.5661043 10.21694785 22.00513758 10.12926591 19.28515625 10.1328125 C17.80873657 10.13571289 17.80873657 10.13571289 16.30249023 10.13867188 C15.23329346 10.13416016 14.16409668 10.12964844 13.0625 10.125 C11.41906616 10.12209961 11.41906616 10.12209961 9.74243164 10.11914062 C-2.84822191 10.05505246 -15.42278893 9.55459498 -28 9 C-28 8.67 -28 8.34 -28 8 C-19.42 8 -10.84 8 -2 8 C-2 5.69 -2 3.38 -2 1 C-1.34 0.67 -0.68 0.34 0 0 Z " fill="#B6F9CD" transform="translate(252,227)"/>
<path d="M0 0 C0.66 0 1.32 0 2 0 C5.22268329 6.00085854 6.6992567 11.71147213 7.8125 18.375 C8.01613159 19.57068604 8.01613159 19.57068604 8.22387695 20.79052734 C8.76595008 24.2646729 9.12723229 26.61830314 8 30 C7.34 29.67 6.68 29.34 6 29 C4.1136088 28.915085 2.22421485 28.892807 0.3359375 28.90234375 C-1.34628906 28.90717773 -1.34628906 28.90717773 -3.0625 28.91210938 C-4.8259375 28.92467773 -4.8259375 28.92467773 -6.625 28.9375 C-7.80835937 28.94201172 -8.99171875 28.94652344 -10.2109375 28.95117188 C-13.14067507 28.96298533 -16.07031272 28.97945742 -19 29 C-19 28.34 -19 27.68 -19 27 C-10.75 27 -2.5 27 6 27 C5.6195131 18.1536795 4.40590441 11.14578805 1 3 C0.67 2.01 0.34 1.02 0 0 Z " fill="#C5FEDD" transform="translate(105,137)"/>
<path d="M0 0 C2 4 2 4 2 17 C-6.58 17 -15.16 17 -24 17 C-24 15.02 -24 13.04 -24 11 C-23.34 11 -22.68 11 -22 11 C-22 12.32 -22 13.64 -22 15 C-14.74 15 -7.48 15 0 15 C0 10.05 0 5.1 0 0 Z " fill="#1FD95B" transform="translate(109,147)"/>
<path d="M0 0 C1.01966251 3.2301197 0.95302003 4.18478789 0.0625 7.6875 C-2.7043698 19.11260181 -2.8495117 36.8698149 3.125 47.1875 C4.053125 48.5796875 4.053125 48.5796875 5 50 C5 50.66 5 51.32 5 52 C4.34 52 3.68 52 3 52 C-1.10415132 47.17158669 -1.41733821 44.05140408 -1 38 C-1.66 38 -2.32 38 -3 38 C-3.07477218 33.87410925 -3.12889223 29.74848692 -3.16479492 25.62207031 C-3.17977914 24.22160969 -3.20017379 22.82119517 -3.22631836 21.42089844 C-3.36596427 13.74311157 -3.44895049 7.02463408 0 0 Z " fill="#DBFFEC" transform="translate(32,173)"/>
<path d="M0 0 C0.99 0 1.98 0 3 0 C6.81406326 11.68056872 5.98540533 24.5543384 1.5625 35.9375 C0 39 0 39 -3 41 C-2.70996094 40.21689453 -2.70996094 40.21689453 -2.4140625 39.41796875 C2.21159099 26.3424829 3.5994337 13.49787636 0 0 Z " fill="#CFFDE2" transform="translate(330,146)"/>
<path d="M0 0 C2.34741211 -0.37231445 2.34741211 -0.37231445 5.27734375 -0.36328125 C6.88512695 -0.36231445 6.88512695 -0.36231445 8.52539062 -0.36132812 C9.65138672 -0.34521484 10.77738281 -0.32910156 11.9375 -0.3125 C13.57428711 -0.31733398 13.57428711 -0.31733398 15.24414062 -0.32226562 C33.79915326 -0.20084674 33.79915326 -0.20084674 38 4 C37.17169678 3.90150757 37.17169678 3.90150757 36.32666016 3.80102539 C28.68614199 2.95903751 21.05487621 2.67873195 13.375 2.4375 C12.08464844 2.39431641 10.79429687 2.35113281 9.46484375 2.30664062 C6.30998067 2.20147852 3.15505105 2.09933396 0 2 C-0.33 3.65 -0.66 5.3 -1 7 C-1.625 5.1875 -1.625 5.1875 -2 3 C-1.34 2.01 -0.68 1.02 0 0 Z " fill="#22CF5A" transform="translate(277,128)"/>
<path d="M0 0 C1.06229114 3.48069862 0.69347349 5.49349364 -0.38671875 8.9765625 C-3.76747003 20.13088839 -3.84023504 31.53165522 -2 43 C-4 42 -4 42 -4.60791016 40.2434082 C-6.99936336 26.56030519 -5.59230454 12.64260276 0 0 Z " fill="#D6FDE5" transform="translate(61,167)"/>
<path d="M0 0 C8.58 0 17.16 0 26 0 C25.01 0.495 25.01 0.495 24 1 C24 1.66 24 2.32 24 3 C16.41 3 8.82 3 1 3 C0.67 2.01 0.34 1.02 0 0 Z " fill="#D0FBE2" transform="translate(166,235)"/>
<path d="M0 0 C3.10408807 -0.05807043 6.2080364 -0.09361914 9.3125 -0.125 C10.19357422 -0.14175781 11.07464844 -0.15851563 11.98242188 -0.17578125 C12.82998047 -0.18222656 13.67753906 -0.18867188 14.55078125 -0.1953125 C15.72120972 -0.21102295 15.72120972 -0.21102295 16.9152832 -0.22705078 C19 0 19 0 22 2 C22 2.66 22 3.32 22 4 C20.68 3.67 19.36 3.34 18 3 C18 2.34 18 1.68 18 1 C16.02 1.33 14.04 1.66 12 2 C12 2.66 12 3.32 12 4 C11.34 4 10.68 4 10 4 C10 4.66 10 5.32 10 6 C5.50238605 4.77337801 3.1614154 3.38133995 0 0 Z " fill="#E4FEED" transform="translate(283,151)"/>
<path d="M0 0 C3.14122363 2.57009206 3.95158897 5.12894388 5 9 C5.18654472 11.67197875 5.28533901 14.20942874 5.25 16.875 C5.24613281 17.57882813 5.24226562 18.28265625 5.23828125 19.0078125 C5.15528431 23.98762916 4.56964191 28.29107427 3 33 C2.67 33 2.34 33 2 33 C2.01047363 32.24904053 2.02094727 31.49808105 2.03173828 30.72436523 C2.07351891 27.29544471 2.09939622 23.86657793 2.125 20.4375 C2.14175781 19.25607422 2.15851563 18.07464844 2.17578125 16.85742188 C2.2094585 10.84603241 2.11038894 5.65816878 0 0 Z " fill="#29D862" transform="translate(166,186)"/>
<path d="M0 0 C2.76276177 0.52268466 5.3260876 1.10869587 8 2 C9.77313851 2.08209792 11.54920775 2.10746294 13.32421875 2.09765625 C14.35224609 2.09443359 15.38027344 2.09121094 16.43945312 2.08789062 C17.51130859 2.07951172 18.58316406 2.07113281 19.6875 2.0625 C20.77095703 2.05798828 21.85441406 2.05347656 22.97070312 2.04882812 C25.64719085 2.03703743 28.32356777 2.02058063 31 2 C24.3152599 6.4564934 15.75362489 5.58994972 8 5 C4.83306416 3.99830344 2.7828998 2.85526654 0 1 C0 0.67 0 0.34 0 0 Z " fill="#35DF6E" transform="translate(46,232)"/>
<path d="M0 0 C2.97 0.99 5.94 1.98 9 3 C9 3.66 9 4.32 9 5 C10.7015625 4.9690625 10.7015625 4.9690625 12.4375 4.9375 C16 5 16 5 17 6 C18.34267413 6.08631874 19.68974322 6.10706473 21.03515625 6.09765625 C21.84404297 6.09443359 22.65292969 6.09121094 23.48632812 6.08789062 C24.7615332 6.07532227 24.7615332 6.07532227 26.0625 6.0625 C26.91650391 6.05798828 27.77050781 6.05347656 28.65039062 6.04882812 C30.76695663 6.03700373 32.88348685 6.01906769 35 6 C31.17063768 8.52939458 27.17648427 8.34503009 22.75 8.3125 C21.98582764 8.30831055 21.22165527 8.30412109 20.43432617 8.29980469 C12.3035022 8.13626613 6.52323359 5.89242519 0 1 C0 0.67 0 0.34 0 0 Z " fill="#36DC6C" transform="translate(115,229)"/>
<path d="M0 0 C1.64332789 5.40783078 -0.54324151 9.08648302 -3 14 C1.29 14 5.58 14 10 14 C10 10.37 10 6.74 10 3 C10.33 3 10.66 3 11 3 C11 6.96 11 10.92 11 15 C5.72 15 0.44 15 -5 15 C-4.23239022 11.16195111 -3.40495674 8.23779856 -1.9375 4.6875 C-1.39416016 3.36298828 -1.39416016 3.36298828 -0.83984375 2.01171875 C-0.56269531 1.34785156 -0.28554687 0.68398437 0 0 Z " fill="#C4FDD8" transform="translate(213,184)"/>
<path d="M0 0 C0.33 0 0.66 0 1 0 C1.125 7.75 1.125 7.75 0 10 C-0.20092783 11.49579604 -0.36336066 12.99696724 -0.5 14.5 C-0.88888889 18.77777778 -0.88888889 18.77777778 -2 21 C-0.02 20.67 1.96 20.34 4 20 C3.67 20.66 3.34 21.32 3 22 C0.67843403 22.40729228 -1.6568787 22.74438677 -4 23 C-3.32545897 15.1753241 -1.73123042 7.65443386 0 0 Z " fill="#BCFCD7" transform="translate(292,167)"/>
<path d="M0 0 C0.33 0 0.66 0 1 0 C1 2.97 1 5.94 1 9 C0.34 9 -0.32 9 -1 9 C-0.95875 9.78375 -0.9175 10.5675 -0.875 11.375 C-1.0362967 16.0526044 -1.99085661 20.44083432 -3 25 C-3.66 25 -4.32 25 -5 25 C-4.38580826 16.40131562 -2.19092979 8.30515248 0 0 Z " fill="#30D966" transform="translate(268,162)"/>
<path d="M0 0 C2.22825644 2.22825644 2.69239369 3.65761628 3.625 6.625 C3.88539062 7.44226563 4.14578125 8.25953125 4.4140625 9.1015625 C4.60742188 9.72804687 4.80078125 10.35453125 5 11 C4.36578125 11.10183594 3.7315625 11.20367187 3.078125 11.30859375 C2.39234375 11.53675781 1.7065625 11.76492187 1 12 C-0.3045656 14.99615946 -0.3045656 14.99615946 -1 18 C-2.04005702 14.61981469 -2.08004482 11.5219721 -2 8 C-1.34 8 -0.68 8 0 8 C0 5.36 0 2.72 0 0 Z " fill="#D4FEE5" transform="translate(119,167)"/>
<path d="M0 0 C11.22 0 22.44 0 34 0 C34 0.33 34 0.66 34 1 C33.04633545 1.02505615 32.0926709 1.0501123 31.11010742 1.07592773 C27.57090893 1.17012071 24.03190125 1.27031231 20.49291992 1.37231445 C18.96138982 1.41561833 17.42981285 1.45729667 15.89819336 1.49731445 C13.69630818 1.55512732 11.49465789 1.61878969 9.29296875 1.68359375 C8.60849167 1.70030624 7.92401459 1.71701874 7.21879578 1.73423767 C4.22879896 1.8273555 1.85937689 2.04687437 -1 3 C-0.67 2.01 -0.34 1.02 0 0 Z " fill="#2FC863" transform="translate(214,128)"/>
<path d="M0 0 C0.33 1.32 0.66 2.64 1 4 C0.34 4 -0.32 4 -1 4 C-1.0825 4.556875 -1.165 5.11375 -1.25 5.6875 C-2.23609434 8.72795754 -3.88586218 10.62960305 -6 13 C-9.21451269 14.60725635 -12.43612536 14.05748185 -16 14 C-15.484375 13.7525 -14.96875 13.505 -14.4375 13.25 C-13.2309375 12.63125 -13.2309375 12.63125 -12 12 C-10.824375 11.401875 -9.64875 10.80375 -8.4375 10.1875 C-5.16232406 8.3119719 -3.6729904 6.43403293 -2 3 C-1.34 2.01 -0.68 1.02 0 0 Z " fill="#25D960" transform="translate(304,177)"/>
<path d="M0 0 C1.63001953 0.01353516 1.63001953 0.01353516 3.29296875 0.02734375 C4.12441406 0.03894531 4.95585938 0.05054688 5.8125 0.0625 C5.4825 2.3725 5.1525 4.6825 4.8125 7.0625 C4.35875 6.4025 3.905 5.7425 3.4375 5.0625 C-0.51982033 2.0473988 -4.37754145 2.73204483 -9.1875 3.0625 C-9.1875 2.4025 -9.1875 1.7425 -9.1875 1.0625 C-5.90230525 -0.03256492 -3.45086585 -0.03710608 0 0 Z " fill="#22DE5F" transform="translate(80.1875,148.9375)"/>
<path d="M0 0 C6.88834855 6.70707622 6.88834855 6.70707622 7.1953125 10.26171875 C7.16050781 11.46248047 7.16050781 11.46248047 7.125 12.6875 C7.10695312 13.49574219 7.08890625 14.30398437 7.0703125 15.13671875 C7.03550781 16.05904297 7.03550781 16.05904297 7 17 C6.34 17.33 5.68 17.66 5 18 C4.96261719 17.22914063 4.92523438 16.45828125 4.88671875 15.6640625 C4.78810547 14.15972656 4.78810547 14.15972656 4.6875 12.625 C4.62949219 11.62726563 4.57148438 10.62953125 4.51171875 9.6015625 C4.34285156 8.74304688 4.17398438 7.88453125 4 7 C3.01 6.34 2.02 5.68 1 5 C0.3125 2.375 0.3125 2.375 0 0 Z " fill="#B8FCD4" transform="translate(138,194)"/>
<path d="M0 0 C1.09651823 3.41139003 0.94215473 6.20655581 0.5625 9.75 C0.40974609 11.22726563 0.40974609 11.22726563 0.25390625 12.734375 C0.12822266 13.85585937 0.12822266 13.85585937 0 15 C2.31 15.33 4.62 15.66 7 16 C6.67 17.65 6.34 19.3 6 21 C5.67 20.34 5.34 19.68 5 19 C5.33 18.34 5.66 17.68 6 17 C3.36 17 0.72 17 -2 17 C-3.44715727 13.12813552 -2.5441918 10.1767672 -1.5625 6.25 C-1.27503906 5.07953125 -0.98757812 3.9090625 -0.69140625 2.703125 C-0.46324219 1.81109375 -0.23507813 0.9190625 0 0 Z " fill="#37DB6A" transform="translate(75,180)"/>
<path d="M0 0 C0.33 0 0.66 0 1 0 C1.09796875 0.85722656 1.1959375 1.71445313 1.296875 2.59765625 C2.18407427 9.38167135 3.20466232 14.30699349 7 20 C7 20.66 7 21.32 7 22 C6.34 22 5.68 22 5 22 C1.06159206 17.30648377 0.36970655 13.64297455 0.25 7.625 C0.22035156 6.88894531 0.19070312 6.15289062 0.16015625 5.39453125 C0.09011967 3.5969257 0.04271881 1.7984621 0 0 Z " fill="#B8FBD4" transform="translate(30,203)"/>
<path d="M0 0 C-0.66386719 0.38671875 -1.32773437 0.7734375 -2.01171875 1.171875 C-6.58517111 3.86921041 -10.97252628 6.50952278 -15 10 C-15 8.68 -15 7.36 -15 6 C-14.360625 5.896875 -13.72125 5.79375 -13.0625 5.6875 C-12.381875 5.460625 -11.70125 5.23375 -11 5 C-10.67 4.01 -10.34 3.02 -10 2 C-3.73913043 -1.24637681 -3.73913043 -1.24637681 0 0 Z " fill="#D3FEE4" transform="translate(65,130)"/>
<path d="M0 0 C0.66 0 1.32 0 2 0 C2.20413361 5.73842251 2.27141454 10.60539047 0 16 C-0.66 16 -1.32 16 -2 16 C-1.34 10.72 -0.68 5.44 0 0 Z " fill="#28DB62" transform="translate(307,159)"/>
<path d="M0 0 C1.61778428 4.50892135 -0.02043409 7.42414395 -1.80859375 11.6484375 C-3.15446388 14.30487624 -4.65554667 16.15792953 -7 18 C-5.06375702 11.79522136 -2.74390859 5.89174281 0 0 Z " fill="#2AD862" transform="translate(204,148)"/>
<path d="M0 0 C3.10408807 -0.05807043 6.2080364 -0.09361914 9.3125 -0.125 C10.19357422 -0.14175781 11.07464844 -0.15851563 11.98242188 -0.17578125 C12.82998047 -0.18222656 13.67753906 -0.18867188 14.55078125 -0.1953125 C15.72120972 -0.21102295 15.72120972 -0.21102295 16.9152832 -0.22705078 C19 0 19 0 22 2 C22 2.66 22 3.32 22 4 C20.68 3.67 19.36 3.34 18 3 C18 2.34 18 1.68 18 1 C17.02417969 1.0721875 16.04835938 1.144375 15.04296875 1.21875 C13.13451172 1.35796875 13.13451172 1.35796875 11.1875 1.5 C9.29064453 1.63921875 9.29064453 1.63921875 7.35546875 1.78125 C5.24021483 1.91914781 3.11974408 2 1 2 C0.67 1.34 0.34 0.68 0 0 Z " fill="#C1FED9" transform="translate(283,151)"/>
<path d="M0 0 C1.98111192 6.50936775 -1.65137286 12.91492059 -4 19 C-5.79341438 14.83326479 -4.01173384 11.25336659 -2.5625 7.25 C-2.19801758 6.20392578 -2.19801758 6.20392578 -1.82617188 5.13671875 C-1.22689752 3.42114902 -0.61470115 1.71010285 0 0 Z " fill="#C7FDDE" transform="translate(61,167)"/>
<path d="M0 0 C0.66 0 1.32 0 2 0 C1.68853528 1.89600369 1.37578283 3.79179587 1.0625 5.6875 C0.88847656 6.74324219 0.71445312 7.79898438 0.53515625 8.88671875 C0.06832879 11.60249604 -0.44422616 14.30124235 -1 17 C-1.33 17 -1.66 17 -2 17 C-2.22084624 10.90218999 -2.01167675 5.78357065 0 0 Z " fill="#1DD85A" transform="translate(289,173)"/>
<path d="M0 0 C0 0.33 0 0.66 0 1 C-1.65 1 -3.3 1 -5 1 C-5 1.99 -5 2.98 -5 4 C-5.99 4 -6.98 4 -8 4 C-8.66 5.98 -9.32 7.96 -10 10 C-10.33 10 -10.66 10 -11 10 C-11.2145758 6.85288821 -11.23318878 4.55382336 -10 1.625 C-6.82368122 -0.95575901 -4.00554268 -0.26265854 0 0 Z " fill="#D1FEE6" transform="translate(156,149)"/>
<path d="M0 0 C7.26 0 14.52 0 22 0 C22 0.66 22 1.32 22 2 C11.605 2.495 11.605 2.495 1 3 C0.67 2.01 0.34 1.02 0 0 Z " fill="#E1FEF2" transform="translate(52,236)"/>
<path d="M0 0 C0.66 1.32 1.32 2.64 2 4 C1.38125 4.9075 0.7625 5.815 0.125 6.75 C-1.44389611 9.14948817 -2.80443821 11.40961612 -4 14 C-5.305239 10.08428299 -4.32239848 8.96107003 -2.5625 5.3125 C-2.08941406 4.31863281 -1.61632813 3.32476562 -1.12890625 2.30078125 C-0.75636719 1.54152344 -0.38382813 0.78226563 0 0 Z " fill="#2DDF68" transform="translate(40,154)"/>
<path d="M0 0 C0.37125 0.515625 0.7425 1.03125 1.125 1.5625 C3.00457223 3.32937219 3.00457223 3.32937219 6 2.8125 C9.14901583 2.13025087 9.14901583 2.13025087 12 0 C11.625 2.4375 11.625 2.4375 11 5 C7.7169902 6.6415049 4.57454967 5.51888624 1 5 C0.67 3.35 0.34 1.7 0 0 Z " fill="#23DE61" transform="translate(133,211)"/>
<path d="M0 0 C2.475 0.99 2.475 0.99 5 2 C4.47462276 7.0302076 3.89405214 12.01885239 3 17 C2.67 17 2.34 17 2 17 C1.78807779 11.80790596 2.4087311 7.873261 4 3 C2.68 3 1.36 3 0 3 C0 2.01 0 1.02 0 0 Z " fill="#22D75A" transform="translate(289,156)"/>
<path d="M0 0 C0.33 0.99 0.66 1.98 1 3 C1.99 3 2.98 3 4 3 C3.34 5.31 2.68 7.62 2 10 C0.68 9.34 -0.64 8.68 -2 8 C-1.34 5.36 -0.68 2.72 0 0 Z " fill="#C5FCDB" transform="translate(170,211)"/>
<path d="M0 0 C0.66 0.33 1.32 0.66 2 1 C0.68 4.3 -0.64 7.6 -2 11 C-4.64 11 -7.28 11 -10 11 C-10 10.67 -10 10.34 -10 10 C-7.69 10 -5.38 10 -3 10 C-2.814375 8.3603125 -2.814375 8.3603125 -2.625 6.6875 C-2 3 -2 3 0 0 Z " fill="#22D862" transform="translate(195,224)"/>
<path d="M0 0 C-1 2 -1 2 -3.125 3.125 C-6.52391089 4.15945114 -9.46640886 4.1385722 -13 4 C-10.56272708 2.37515139 -8.62713877 1.34310925 -5.9375 0.3125 C-5.24527344 0.04050781 -4.55304688 -0.23148438 -3.83984375 -0.51171875 C-2 -1 -2 -1 0 0 Z " fill="#C6FBDB" transform="translate(309,208)"/>
<path d="M0 0 C0.66 0 1.32 0 2 0 C0.58192622 4.47238653 -1.11304374 8.71146306 -3 13 C-5 10 -5 10 -4.625 7.8125 C-4.41875 7.214375 -4.2125 6.61625 -4 6 C-3.34 6.33 -2.68 6.66 -2 7 C-1.34 4.69 -0.68 2.38 0 0 Z " fill="#D2FDE0" transform="translate(191,173)"/>
<path d="M0 0 C0.66 0 1.32 0 2 0 C1.77139942 1.46184058 1.51629608 2.91955419 1.25 4.375 C1.04117188 5.59316406 1.04117188 5.59316406 0.828125 6.8359375 C0 9 0 9 -2.078125 10.2890625 C-3.02945313 10.64097656 -3.02945313 10.64097656 -4 11 C-3.52269162 9.5410574 -3.04308958 8.08286504 -2.5625 6.625 C-2.29566406 5.81289062 -2.02882812 5.00078125 -1.75390625 4.1640625 C-1 2 -1 2 0 0 Z " fill="#29DB5E" transform="translate(185,190)"/>
<path d="M0 0 C1 3 1 3 0.0625 5.1875 C-0.4634375 6.0846875 -0.4634375 6.0846875 -1 7 C-3.31 7 -5.62 7 -8 7 C-7.13375 6.38125 -7.13375 6.38125 -6.25 5.75 C-3.97483401 3.98042645 -2.00004601 2.07147622 0 0 Z " fill="#1FD85D" transform="translate(114,190)"/>
<path d="M0 0 C1.21386936 3.64160808 0.6674695 4.33165469 -0.9375 7.6875 C-1.31777344 8.49574219 -1.69804687 9.30398437 -2.08984375 10.13671875 C-2.39019531 10.75160156 -2.69054687 11.36648437 -3 12 C-4.22419163 8.06204091 -3.48320272 5.83887763 -2 2 C-1.34 2 -0.68 2 0 2 C0 1.34 0 0.68 0 0 Z " fill="#23D858" transform="translate(330,175)"/>
<path d="M0 0 C1.09658936 3.28976808 0.79953138 4.71303767 0 8 C0.66 8.33 1.32 8.66 2 9 C0.02 9 -1.96 9 -4 9 C-3.34 8.67 -2.68 8.34 -2 8 C-2 5.69 -2 3.38 -2 1 C-1.34 0.67 -0.68 0.34 0 0 Z " fill="#D9FFED" transform="translate(252,227)"/>
<path d="M0 0 C0.33 0 0.66 0 1 0 C0.03644647 9.41002278 0.03644647 9.41002278 -1 14 C-1.33 14 -1.66 14 -2 14 C-2.05437607 12.41705218 -2.09296271 10.83355744 -2.125 9.25 C-2.14820313 8.36828125 -2.17140625 7.4865625 -2.1953125 6.578125 C-1.99139502 3.8864142 -1.36551721 2.30095026 0 0 Z " fill="#D3FEE9" transform="translate(265,169)"/>
<path d="M0 0 C1 3 1 3 0.0625 5.1875 C-0.4634375 6.0846875 -0.4634375 6.0846875 -1 7 C-1.66 7 -2.32 7 -3 7 C-3.33 8.32 -3.66 9.64 -4 11 C-4.66 11 -5.32 11 -6 11 C-4.54955729 6.89041233 -2.48889248 3.56741255 0 0 Z " fill="#C8FDE2" transform="translate(68,155)"/>
<path d="M0 0 C0.33 0 0.66 0 1 0 C1 3.3 1 6.6 1 10 C0.34 10 -0.32 10 -1 10 C-1 10.66 -1 11.32 -1 12 C-1.66 11.67 -2.32 11.34 -3 11 C-2.01 7.37 -1.02 3.74 0 0 Z " fill="#BCFBD8" transform="translate(116,185)"/>
<path d="M0 0 C4.54805635 -0.17835515 7.8794254 0.00214565 12 2 C12 2.33 12 2.66 12 3 C10.37419034 2.88601335 8.74932843 2.75844341 7.125 2.625 C6.22007812 2.55539063 5.31515625 2.48578125 4.3828125 2.4140625 C2 2 2 2 0 0 Z " fill="#26DA60" transform="translate(303,129)"/>
<path d="M0 0 C3.63 0.33 7.26 0.66 11 1 C9 3 9 3 6.0625 3.3125 C3 3 3 3 0 0 Z " fill="#B1FCCB" transform="translate(59,210)"/>
<path d="M0 0 C1.32 0.33 2.64 0.66 4 1 C3.67 2.98 3.34 4.96 3 7 C2.34 6.01 1.68 5.02 1 4 C1.33 3.67 1.66 3.34 2 3 C1.34 2.67 0.68 2.34 0 2 C0 2.66 0 3.32 0 4 C-0.66 3.67 -1.32 3.34 -2 3 C-1.34 2.01 -0.68 1.02 0 0 Z " fill="#CCFBE0" transform="translate(164,225)"/>
<path d="M0 0 C0.66 0.33 1.32 0.66 2 1 C0.19587357 4.26460973 -0.83394693 5.88929795 -4 8 C-3.67 6.35 -3.34 4.7 -3 3 C-2.01 2.67 -1.02 2.34 0 2 C0 1.34 0 0.68 0 0 Z " fill="#D7FEE0" transform="translate(301,179)"/>
<path d="M0 0 C0.66 0 1.32 0 2 0 C1.54965877 1.62723299 1.08944646 3.25173664 0.625 4.875 C0.36976563 5.77992188 0.11453125 6.68484375 -0.1484375 7.6171875 C-1 10 -1 10 -3 12 C-2.14285714 3.42857143 -2.14285714 3.42857143 0 0 Z " fill="#27DC63" transform="translate(221,160)"/>
<path d="M0 0 C0.66 0.33 1.32 0.66 2 1 C-0.77280706 4.08089673 -3.06326356 5.68775452 -7 7 C-4.78071806 4.09197539 -3.07030857 2.04687238 0 0 Z " fill="#28D963" transform="translate(59,132)"/>
<path d="M0 0 C1.98 0.66 3.96 1.32 6 2 C6 2.99 6 3.98 6 5 C6.66 5.33 7.32 5.66 8 6 C5 6 5 6 3.61328125 4.6875 C2.40885417 3.125 1.20442708 1.5625 0 0 Z " fill="#C2FCD6" transform="translate(98,130)"/>
<path d="M0 0 C0.99 0 1.98 0 3 0 C2.45773019 3.79588866 0.79872437 5.47211993 -2 8 C-2 7.01 -2 6.02 -2 5 C-1.34 5 -0.68 5 0 5 C0 3.35 0 1.7 0 0 Z " fill="#20DA56" transform="translate(323,187)"/>
<path d="M0 0 C3.44216672 2.6598561 3.99504674 5.90288286 5 10 C4.34 9.67 3.68 9.34 3 9 C3 8.34 3 7.68 3 7 C2.34 7 1.68 7 1 7 C0.67 4.69 0.34 2.38 0 0 Z " fill="#33DC6F" transform="translate(178,136)"/>
<path d="M0 0 C0.66 0.33 1.32 0.66 2 1 C-0.475 5.455 -0.475 5.455 -3 10 C-3.33 9.34 -3.66 8.68 -4 8 C-2.98446183 4.9533855 -1.79237442 2.68856164 0 0 Z " fill="#FFE1FD" transform="translate(347,259)"/>
<path d="M0 0 C2.5 2.3125 2.5 2.3125 5 5 C5 5.99 5 6.98 5 8 C2.21611025 6.29374499 1.14615794 5.52373261 0.25 2.3125 C0.1675 1.549375 0.085 0.78625 0 0 Z " fill="#CFFEDC" transform="translate(138,194)"/>
</svg>
